<?xml version="1.0" encoding="UTF-8" standalone="no"?>
<!-- Created with Inkscape (http://www.inkscape.org/) -->

<svg xmlns:dc="http://purl.org/dc/elements/1.1/" xmlns:cc="http://creativecommons.org/ns#" xmlns:rdf="http://www.w3.org/1999/02/22-rdf-syntax-ns#" xmlns:svg="http://www.w3.org/2000/svg" xmlns="http://www.w3.org/2000/svg" id="svg2" version="1.1" xml:space="preserve" width="744.10126" height="210.54375" viewBox="0 0 744.10126 200.54374">
	<defs id="defs6">
		<clipPath clipPathUnits="userSpaceOnUse" id="clipPath18">
			<path d="m 0,841.89 595.28,0 L 595.28,0 0,0 0,841.89 Z" id="path20" />
		</clipPath>
	</defs>
	<g id="g10" transform="matrix(1.25,0,0,-1.25,0,1072.3613)">
		<g id="g16" clip-path="url(#clipPath18)">
			<g id="g22" transform="translate(190.0557,765.4824)">
				<path d="m 0,0 c -2.068,5.102 -5.754,6.669 -10.526,5.931 -6.23,-0.964 -9.474,-3.977 -10.23,-9.16 -0.468,-3.207 0.553,-4.976 4.069,-3.92 C -10.988,-5.439 -5.333,-3.589 0,0 m -25.405,-7.056 c 1.134,9.785 6.307,17.409 16.686,20.194 5.08,1.363 9.243,0.04 12.269,-4.154 C 6.617,4.735 4.774,0.79 2.241,-2.978 c -2.857,-4.248 -7.464,-5.907 -11.756,-8.069 -1.81,-0.911 -4.238,-0.84 -5.681,-3.48 7.082,-2.87 13.972,-3.015 21.037,-0.929 -0.483,-6.294 -3.061,-8.536 -10.716,-9.018 -5.516,-0.346 -10.924,0.457 -15.572,3.735 -2.256,1.591 -5.593,8.209 -4.958,13.683" style="fill:#ffffff;fill-opacity:1;fill-rule:evenodd;stroke:none" id="path24" />
			</g>
			<g id="g26" transform="translate(467.1416,750.4678)">
				<path d="m 0,0 c -1.39,4.513 -2.298,9.256 -4.312,13.47 -1.876,3.929 1.127,5.748 2.747,7.575 1.74,1.964 2.627,-0.715 3.059,-2.153 C 2.882,14.267 4.342,9.684 6.986,5.592 7.863,4.235 8.416,2.535 10.606,1.907 15.278,19.671 23.677,34.214 43.834,38.684 43.507,34.291 42.317,31.498 37.967,29.911 24.158,24.874 18.598,13.182 14.986,0.122 14.899,-0.193 14.981,-0.556 14.892,-0.87 13.97,-4.096 14.465,-8.555 10.401,-9.536 c -3.972,-0.96 -5.164,3.382 -7.364,5.67 -0.869,0.904 -1.214,2.51 -3.242,2.225 -0.736,-2.53 -2.038,-4.897 -4.492,-6.699 -3.558,2.028 -5.054,5.865 -7.471,9.391 -2.994,-3.863 -6.435,-6.467 -10.894,-7.773 -10.424,-3.053 -19.57,5.163 -17.577,15.936 1.814,9.807 10.504,17.63 20.454,18.313 1.831,0.126 4.253,-0.271 4.375,-2.181 0.171,-2.684 -1.233,-5.231 -4.299,-5.835 -1.602,-0.317 -3.322,0.015 -4.986,-0.029 -7.225,-0.191 -11.376,-3.902 -10.69,-9.519 0.809,-6.623 7.087,-11.287 13.556,-10.072 6.986,1.311 9.028,3.917 5.947,9.626 -2.712,5.025 -0.459,7.926 2.617,11.999 C -9.102,14.019 -8.852,4.485 0,0" style="fill:#ffffff;fill-opacity:1;fill-rule:evenodd;stroke:none" id="path28" />
			</g>
			<g id="g30" transform="translate(532.9609,779.2568)">
				<path d="m 0,0 c 0.402,-8.8 2.647,-16.514 8.216,-23.371 0.767,7.105 1.088,14.526 8.035,18.183 8.589,4.52 17.892,6.839 28.051,5.82 -0.396,-4.526 -1.518,-7.412 -6.885,-7.044 -7.237,0.496 -14.044,-1.964 -20.832,-4.179 -2.135,-0.697 -2.616,-2.145 -2.621,-4.195 -0.01,-4.033 0.313,-8.063 1.749,-11.788 1.19,-3.089 0.876,-5.631 -0.564,-8.49 -2.442,-4.853 -4.24,-5.406 -7.837,-1.153 -6.313,7.465 -10.148,16.222 -12.135,25.787 -0.134,0.645 -0.281,1.286 -0.489,2.24 -4.104,-1.597 -6.861,-3.176 -4.003,-8.284 1.964,-3.512 -0.043,-7.179 -1.671,-10.432 -3.145,-6.284 -8.773,-8.995 -15.434,-9.316 -5.971,-0.287 -9.716,3.341 -12.392,8.374 -3.457,6.501 2.019,19.629 10.123,23.5 2.66,1.272 5.638,1.888 8.489,2.747 2.401,0.725 5.27,0.609 5.554,-2.083 0.256,-2.435 -1.249,-5.201 -4.5,-5.613 -1.309,-0.166 -2.661,0.014 -3.993,-0.006 -7.554,-0.111 -11.347,-3.943 -10.92,-11.013 0.323,-5.314 6.824,-9.587 13.083,-8.601 7.793,1.23 9.923,6.051 5.511,12.732 -0.719,1.089 -0.255,1.864 0.021,2.726 C -13.885,-8.58 -5.582,-1.267 0,0" style="fill:#ffffff;fill-opacity:1;fill-rule:evenodd;stroke:none" id="path32" />
			</g>
			<g id="g34" transform="translate(320.9287,769.9463)">
				<path d="m 0,0 c -7.564,0.017 -12.709,-3.376 -12.567,-8.287 0.181,-6.299 5.29,-11.3 11.567,-11.325 5.336,-0.022 9.207,2.595 9.163,6.195 C 8.068,-5.767 4.566,-0.01 0,0 M 12.134,34.484 C 9.066,22.722 8.57,12.066 10.985,1.414 c 1.519,-6.698 3.786,-13.254 8.597,-18.279 3.778,-3.947 2.787,-6.741 -0.933,-9.856 -3.64,1.662 -4.851,5.52 -7.402,8.659 -2.862,-3.908 -6.34,-6.749 -11.006,-8.117 -10.242,-3.002 -19.216,4.681 -17.765,15.294 1.502,10.989 7.648,15.664 16.937,17.972 3.631,0.902 4.845,2.121 5.054,6.017 0.328,6.109 -0.405,12.55 3.422,18.151 0.91,1.333 1.745,2.086 4.245,3.229" style="fill:#ffffff;fill-opacity:1;fill-rule:evenodd;stroke:none" id="path36" />
			</g>
			<g id="g38" transform="translate(276.8042,765.4326)">
				<path
				d="m 0,0 c -2.691,5.49 -5.401,6.713 -11.646,5.53 -5.174,-0.979 -8.147,-3.984 -8.785,-9.216 -0.337,-2.764 0.764,-4.305 3.685,-3.42 C -10.917,-5.339 -5.082,-3.533 0,0 m -14.641,-14.439 c 6.934,-3.122 13.809,-1.923 21.06,-1.176 0.356,-3.682 -1.639,-6.139 -4.737,-7.43 -8.666,-3.611 -19.182,-0.876 -25.202,6.303 -0.617,0.735 -1.142,1.624 -1.45,2.53 -4.17,12.264 8.021,28.56 20.835,27.894 C 3.429,13.288 7.343,6.286 4.083,-0.564 0.806,-7.45 -5.81,-9.505 -11.954,-12.328 c -0.873,-0.401 -2.016,-0.346 -2.687,-2.111"
				style="fill:#ffffff;fill-opacity:1;fill-rule:evenodd;stroke:none"
				id="path40"
				/>
			</g>
			<g id="g42" transform="translate(369.8711,765.4834)">
				<path d="m 0,0 c -2.07,5.388 -6.089,6.476 -11.185,5.53 -5.803,-1.075 -8.851,-4.073 -9.329,-9.23 -0.3,-3.261 1.184,-4.313 4.153,-3.354 C -10.724,-5.233 -5.026,-3.523 0,0 m 6.608,-15.726 c -0.712,-5.016 -3.27,-7.381 -8.249,-8.157 -8.63,-1.345 -16.3,-0.52 -21.925,7.056 -0.578,0.776 -1.149,1.618 -1.461,2.519 -4.146,11.986 7.684,28.248 20.29,27.939 8.21,-0.201 12.191,-7.246 8.543,-14.609 -2.942,-5.933 -8.468,-8.126 -13.901,-10.599 -1.468,-0.668 -2.968,-1.264 -5.563,-2.362 7.792,-3.833 14.887,-2.331 22.266,-1.787" style="fill:#ffffff;fill-opacity:1;fill-rule:evenodd;stroke:none" id="path44" /></g><g id="g46" transform="translate(243.9395,740.9863)">
				<path d="m 0,0 c -6.236,6.943 -10.503,14.904 -12.271,24.02 -2.235,11.535 -2.7,23.06 2.272,34.17 0.52,1.161 0.726,2.999 2.402,2.503 2.008,-0.593 1.287,-2.372 0.754,-3.762 -0.84,-2.191 -1.436,-4.388 -0.882,-7.06 9.817,4.704 19.828,8.135 31.068,7.049 C 22.971,52.135 21.475,49.573 16.276,49.853 8.701,50.26 1.598,47.74 -5.462,45.223 -8.332,44.2 -8.643,42.104 -8.557,39.709 -8.17,28.831 -5.429,18.74 1.439,10.026 5.542,4.82 5.506,4.792 0,0" style="fill:#ffffff;fill-opacity:1;fill-rule:evenodd;stroke:none" id="path48" />
				</g>
				<g id="g50" transform="translate(419.46,765.3076)">
				<path d="m 0,0 c -1.829,0.293 -2.578,1.723 -3.589,3.032 -2.751,3.566 -6.324,4.416 -10.664,3.096 -2.791,-0.85 -5.194,-2.507 -5.694,-5.034 -0.592,-2.995 2.971,-3.025 4.806,-4.073 4.058,-2.315 8.517,-3.786 13.037,-4.92 2.804,-0.704 4.297,-2.438 4.856,-5.054 0.542,-2.534 -0.602,-4.471 -2.512,-6.121 -5.634,-4.866 -12.338,-6.283 -19.351,-5.066 -3.498,0.608 -6.26,3.331 -6.695,7.836 6.727,0.033 13.835,-1.4 21.544,2.65 -3.636,1.478 -6.143,2.608 -8.727,3.522 -4.99,1.766 -8.337,5.368 -10.215,10.033 -3.378,8.396 1.432,14.589 10.433,13.891 C -3.618,13.082 1.557,7.543 0,0" style="fill:#ffffff;fill-opacity:1;fill-rule:evenodd;stroke:none" id="path52" />
				</g>
				<g id="g54" transform="translate(199.6831,749.8076)">
				<path d="m 0,0 c 7.338,-1.752 13.909,-1.674 21.408,1.584 -3.653,1.737 -6.178,3.331 -8.932,4.162 -4.893,1.477 -7.666,5.083 -9.714,9.23 -3.961,8.021 0.736,14.764 9.726,14.323 9.017,-0.442 14.485,-5.763 13.624,-13.516 -2.415,0.319 -3.368,2.531 -4.826,3.871 -2.608,2.397 -5.481,3.002 -8.738,2.29 C 9.488,21.276 6.47,19.692 5.866,16.67 5.218,13.431 9.015,13.314 11.008,12.374 15.044,10.47 19.323,9.057 23.557,7.603 29.143,5.685 30.497,0.374 26.013,-3.407 19.919,-8.545 12.97,-10.373 5.201,-7.553 1.792,-6.315 0.897,-3.473 0,0" style="fill:#ffffff;fill-opacity:1;fill-rule:evenodd;stroke:none" id="path56" />
			</g>
			<g id="g58" transform="translate(527.8535,787.2021)">
				<path d="m 0,0 c -1.303,9.63 3.294,14.546 11.084,13.899 1.94,-0.161 2.763,-0.89 2.767,-2.635 C 13.854,9.663 13.362,8.148 11.395,8.204 6.186,8.354 2.547,6.049 0,0" style="fill:#ffffff;fill-opacity:1;fill-rule:evenodd;stroke:none" id="path60" />
			</g>
			<g id="g62" transform="translate(156.6675,752.3877)"> style="fill:#f8ad32;fill-opacity:1;fill-rule:evenodd;stroke:none" id="path64" />
			</g>
			<g id="g66" transform="translate(24.3271,787.7803)">
				<path d="M 0,0 C 10.319,9.908 21.959,15.851 35.988,17.137 47.49,18.194 56.135,10.121 56.2,-1.436 c 0.021,-3.749 -0.174,-7.549 -0.778,-11.243 -4.908,-29.985 7.366,-41.894 37.76,-41.297 7.782,0.153 15.207,1.199 23.718,2.846 0,0 17.264,3.63 26.326,11.471 2.911,2.518 5.454,5.656 8.134,8.547 0.731,2.034 -1.448,1.259 -1.448,1.259 -18.883,-9.007 -30.247,-10.674 -30.247,-10.674 -13.22,-1.951 -26.405,-3.36 -38.957,3.295 -8.571,4.544 -12.062,11.984 -11.192,21.645 0.725,8.051 1.991,16.166 1.595,24.183 C 70.236,26.246 57.196,35.402 39.927,31.112 21.424,26.516 8.504,14.607 -3.503,0.308 c -3.202,-3.814 -2.135,-4.322 -2.135,-4.322 0,0 0.914,-0.523 5.638,4.014" style="fill:#ffffff;fill-opacity:1;fill-rule:evenodd;stroke:none" id="path68" />
			</g>
			<g id="g70" transform="translate(77.1812,756.7612)">
				<path d="m 0,0 c -26.007,-5.248 -34.209,-4.312 -42.486,16.763 -3.375,-5.034 -7.035,-8.377 -8.024,-12.38 -2.556,-10.354 5.911,-21.088 17.512,-20.996 8.714,0.07 17.549,2.555 26.072,4.965 4.936,1.395 7.74,2.604 9.116,3.865 C 1.152,-5.474 0.425,-2.882 0,0" style="fill:#f8ad32;fill-opacity:1;fill-rule:evenodd;stroke:none" id="path72" />
			</g>
		</g>
	</g>
</svg>
